<mxfile host="app.diagrams.net" modified="2021-10-20T16:43:53.453Z" agent="5.0 (Windows NT 10.0; Win64; x64) AppleWebKit/537.36 (KHTML, like Gecko) Chrome/94.0.4606.81 Safari/537.36" etag="A_3TWL1hz3128n49pyme" version="15.5.6" type="github">
  <diagram id="70E2S9sxuHQzDW2P-FZV" name="Page-1">
    <mxGraphModel dx="496" dy="283" grid="1" gridSize="10" guides="1" tooltips="1" connect="1" arrows="1" fold="1" page="1" pageScale="1" pageWidth="1169" pageHeight="827" math="0" shadow="0">
      <root>
        <mxCell id="0" />
        <mxCell id="1" parent="0" />
        <mxCell id="qaxNMComh1ngWyjnlw_U-7" style="edgeStyle=orthogonalEdgeStyle;rounded=0;orthogonalLoop=1;jettySize=auto;html=1;exitX=0.5;exitY=1;exitDx=0;exitDy=0;entryX=0.5;entryY=0;entryDx=0;entryDy=0;endArrow=none;endFill=0;" edge="1" parent="1" source="qaxNMComh1ngWyjnlw_U-1" target="qaxNMComh1ngWyjnlw_U-4">
          <mxGeometry relative="1" as="geometry" />
        </mxCell>
        <mxCell id="qaxNMComh1ngWyjnlw_U-8" value="(1,1)" style="edgeLabel;html=1;align=center;verticalAlign=middle;resizable=0;points=[];" vertex="1" connectable="0" parent="qaxNMComh1ngWyjnlw_U-7">
          <mxGeometry x="-0.7036" y="1" relative="1" as="geometry">
            <mxPoint as="offset" />
          </mxGeometry>
        </mxCell>
        <mxCell id="qaxNMComh1ngWyjnlw_U-9" value="(1,N)" style="edgeLabel;html=1;align=center;verticalAlign=middle;resizable=0;points=[];" vertex="1" connectable="0" parent="qaxNMComh1ngWyjnlw_U-7">
          <mxGeometry x="0.6536" y="-1" relative="1" as="geometry">
            <mxPoint as="offset" />
          </mxGeometry>
        </mxCell>
        <mxCell id="qaxNMComh1ngWyjnlw_U-1" value="Cliente" style="whiteSpace=wrap;html=1;align=center;" vertex="1" parent="1">
          <mxGeometry x="310" y="330" width="100" height="40" as="geometry" />
        </mxCell>
        <mxCell id="qaxNMComh1ngWyjnlw_U-2" value="Attribute" style="ellipse;whiteSpace=wrap;html=1;align=center;" vertex="1" parent="1">
          <mxGeometry x="20" y="240" width="100" height="40" as="geometry" />
        </mxCell>
        <mxCell id="qaxNMComh1ngWyjnlw_U-3" value="Associative&#xa;Entity" style="shape=associativeEntity;whiteSpace=wrap;html=1;align=center;" vertex="1" parent="1">
          <mxGeometry x="20" y="300" width="140" height="60" as="geometry" />
        </mxCell>
        <mxCell id="qaxNMComh1ngWyjnlw_U-12" value="" style="edgeStyle=orthogonalEdgeStyle;rounded=0;orthogonalLoop=1;jettySize=auto;html=1;endArrow=none;endFill=0;" edge="1" parent="1" source="qaxNMComh1ngWyjnlw_U-4" target="qaxNMComh1ngWyjnlw_U-5">
          <mxGeometry relative="1" as="geometry" />
        </mxCell>
        <mxCell id="qaxNMComh1ngWyjnlw_U-4" value="ApÃ³lice" style="whiteSpace=wrap;html=1;align=center;" vertex="1" parent="1">
          <mxGeometry x="310" y="440" width="100" height="40" as="geometry" />
        </mxCell>
        <mxCell id="qaxNMComh1ngWyjnlw_U-10" style="edgeStyle=orthogonalEdgeStyle;rounded=0;orthogonalLoop=1;jettySize=auto;html=1;exitX=0;exitY=0.5;exitDx=0;exitDy=0;entryX=1;entryY=0.5;entryDx=0;entryDy=0;endArrow=none;endFill=0;" edge="1" parent="1" source="qaxNMComh1ngWyjnlw_U-5" target="qaxNMComh1ngWyjnlw_U-4">
          <mxGeometry relative="1" as="geometry">
            <Array as="points">
              <mxPoint x="420" y="460" />
              <mxPoint x="420" y="460" />
            </Array>
          </mxGeometry>
        </mxCell>
        <mxCell id="qaxNMComh1ngWyjnlw_U-11" value="(0,N)" style="edgeLabel;html=1;align=center;verticalAlign=middle;resizable=0;points=[];" vertex="1" connectable="0" parent="qaxNMComh1ngWyjnlw_U-10">
          <mxGeometry x="0.8131" relative="1" as="geometry">
            <mxPoint x="6" as="offset" />
          </mxGeometry>
        </mxCell>
        <mxCell id="qaxNMComh1ngWyjnlw_U-13" value="(1,1)" style="edgeLabel;html=1;align=center;verticalAlign=middle;resizable=0;points=[];" vertex="1" connectable="0" parent="qaxNMComh1ngWyjnlw_U-10">
          <mxGeometry x="-0.6512" relative="1" as="geometry">
            <mxPoint as="offset" />
          </mxGeometry>
        </mxCell>
        <mxCell id="qaxNMComh1ngWyjnlw_U-14" style="edgeStyle=orthogonalEdgeStyle;rounded=0;orthogonalLoop=1;jettySize=auto;html=1;exitX=0.25;exitY=0;exitDx=0;exitDy=0;entryX=1;entryY=0.5;entryDx=0;entryDy=0;endArrow=none;endFill=0;" edge="1" parent="1" source="qaxNMComh1ngWyjnlw_U-5" target="qaxNMComh1ngWyjnlw_U-1">
          <mxGeometry relative="1" as="geometry">
            <Array as="points">
              <mxPoint x="515" y="350" />
            </Array>
          </mxGeometry>
        </mxCell>
        <mxCell id="qaxNMComh1ngWyjnlw_U-15" value="(1,1)" style="edgeLabel;html=1;align=center;verticalAlign=middle;resizable=0;points=[];" vertex="1" connectable="0" parent="qaxNMComh1ngWyjnlw_U-14">
          <mxGeometry x="0.8758" y="-1" relative="1" as="geometry">
            <mxPoint as="offset" />
          </mxGeometry>
        </mxCell>
        <mxCell id="qaxNMComh1ngWyjnlw_U-16" value="(1,N)" style="edgeLabel;html=1;align=center;verticalAlign=middle;resizable=0;points=[];" vertex="1" connectable="0" parent="qaxNMComh1ngWyjnlw_U-14">
          <mxGeometry x="-0.8892" relative="1" as="geometry">
            <mxPoint as="offset" />
          </mxGeometry>
        </mxCell>
        <mxCell id="qaxNMComh1ngWyjnlw_U-18" style="edgeStyle=orthogonalEdgeStyle;rounded=0;orthogonalLoop=1;jettySize=auto;html=1;exitX=0.75;exitY=0;exitDx=0;exitDy=0;entryX=0;entryY=0.5;entryDx=0;entryDy=0;endArrow=none;endFill=0;" edge="1" parent="1" source="qaxNMComh1ngWyjnlw_U-5" target="qaxNMComh1ngWyjnlw_U-6">
          <mxGeometry relative="1" as="geometry" />
        </mxCell>
        <mxCell id="qaxNMComh1ngWyjnlw_U-21" value="(1,1)" style="edgeLabel;html=1;align=center;verticalAlign=middle;resizable=0;points=[];" vertex="1" connectable="0" parent="qaxNMComh1ngWyjnlw_U-18">
          <mxGeometry x="-0.8506" y="-1" relative="1" as="geometry">
            <mxPoint as="offset" />
          </mxGeometry>
        </mxCell>
        <mxCell id="qaxNMComh1ngWyjnlw_U-22" value="(0,N)" style="edgeLabel;html=1;align=center;verticalAlign=middle;resizable=0;points=[];" vertex="1" connectable="0" parent="qaxNMComh1ngWyjnlw_U-18">
          <mxGeometry x="0.8783" relative="1" as="geometry">
            <mxPoint x="-6" as="offset" />
          </mxGeometry>
        </mxCell>
        <mxCell id="qaxNMComh1ngWyjnlw_U-5" value="Carro" style="whiteSpace=wrap;html=1;align=center;" vertex="1" parent="1">
          <mxGeometry x="490" y="440" width="100" height="40" as="geometry" />
        </mxCell>
        <mxCell id="qaxNMComh1ngWyjnlw_U-6" value="Acidentes" style="whiteSpace=wrap;html=1;align=center;" vertex="1" parent="1">
          <mxGeometry x="630" y="330" width="100" height="40" as="geometry" />
        </mxCell>
      </root>
    </mxGraphModel>
  </diagram>
</mxfile>
